<?xml version="1.0" encoding="utf-8"?>
<svg viewBox="0 0 111 111" fill="none" xmlns="http://www.w3.org/2000/svg">
  <path d="M 76.007 83.066 C 78.5 80.576 82.537 80.583 85.023 83.081 C 87.508 85.579 87.502 89.623 85.008 92.113 L 73.935 103.17 C 63.719 113.371 47.06 113.519 36.672 103.513 C 36.612 103.456 31.986 98.92 16.727 83.957 C 6.575 74.003 5.564 58.075 15.117 47.846 L 32.929 28.775 C 42.41 18.622 59.887 17.512 70.728 26.279 L 86.905 39.362 C 89.645 41.578 90.073 45.599 87.861 48.343 C 85.649 51.087 81.635 51.516 78.896 49.3 L 62.719 36.217 C 57.049 31.633 47.132 32.262 42.24 37.501 L 24.428 56.573 C 19.777 61.552 20.286 69.574 25.646 74.829 C 36.851 85.817 45.487 94.285 45.497 94.294 C 50.898 99.496 59.631 99.418 64.933 94.123 L 76.007 83.066 Z" fill="#0098FF"/>
  <path fill-rule="evenodd" clip-rule="evenodd" d="M 49.107 72.001 C 45.586 72.001 42.732 69.142 42.732 65.615 C 42.732 62.088 45.586 59.229 49.107 59.229 L 96.125 59.229 C 99.646 59.229 102.5 62.088 102.5 65.615 C 102.5 69.142 99.646 72.001 96.125 72.001 L 49.107 72.001 Z" fill="#0065A9"/>
  <path fill-rule="evenodd" clip-rule="evenodd" d="M 57.912 2.023 C 60.318 -0.552 64.352 -0.687 66.923 1.723 C 69.494 4.132 69.629 8.174 67.223 10.75 L 24.428 56.573 C 19.777 61.552 20.286 69.574 25.646 74.829 L 45.409 94.209 C 47.925 96.676 47.968 100.72 45.505 103.24 C 43.042 105.761 39.006 105.804 36.49 103.337 L 16.726 83.957 C 6.575 74.002 5.564 58.074 15.117 47.846 L 57.912 2.023 Z" fill="black"/>
</svg>